<?xml version="1.0" encoding="UTF-8"?>
<svg xmlns="http://www.w3.org/2000/svg" xmlns:xlink="http://www.w3.org/1999/xlink"
     width="512" height="512" viewBox="0 0 512 512">
<defs>
</defs>
<rect x="2.5599999999999987" y="2.5599999999999987" width="46.080000000000005" height="46.080000000000005" fill="#ffff00" />
<rect x="2.5599999999999987" y="53.760000000000005" width="46.080000000000005" height="46.080000000000005" fill="#ffe200" />
<rect x="2.5599999999999987" y="104.96000000000001" width="46.080000000000005" height="46.080000000000005" fill="#ffc600" />
<rect x="2.5599999999999987" y="156.16000000000003" width="46.080000000000005" height="46.080000000000005" fill="#ffaa00" />
<rect x="2.5599999999999987" y="207.36" width="46.080000000000005" height="46.080000000000005" fill="#ff8d00" />
<rect x="2.559999999999995" y="258.56" width="46.08000000000001" height="46.08000000000001" fill="#ff7100" />
<rect x="2.5599999999999987" y="309.76000000000005" width="46.080000000000005" height="46.080000000000005" fill="#ff5500" />
<rect x="2.559999999999995" y="360.96000000000004" width="46.08000000000001" height="46.08000000000001" fill="#ff3800" />
<rect x="2.5599999999999987" y="412.16" width="46.080000000000005" height="46.080000000000005" fill="#ff1c00" />
<rect x="2.5599999999999987" y="463.36" width="46.080000000000005" height="46.080000000000005" fill="#ff0000" />
<rect x="53.760000000000005" y="2.5599999999999987" width="46.080000000000005" height="46.080000000000005" fill="#e2ff00" />
<rect x="53.760000000000005" y="53.760000000000005" width="46.080000000000005" height="46.080000000000005" fill="#e5e203" />
<rect x="53.760000000000005" y="104.96000000000001" width="46.080000000000005" height="46.080000000000005" fill="#e8c606" />
<rect x="53.760000000000005" y="156.16000000000003" width="46.080000000000005" height="46.080000000000005" fill="#ecaa09" />
<rect x="53.76" y="207.36" width="46.08000000000001" height="46.08000000000001" fill="#ef8d0c" />
<rect x="53.760000000000005" y="258.56" width="46.080000000000005" height="46.080000000000005" fill="#f2710f" />
<rect x="53.760000000000005" y="309.76000000000005" width="46.080000000000005" height="46.080000000000005" fill="#f55512" />
<rect x="53.760000000000005" y="360.96000000000004" width="46.080000000000005" height="46.080000000000005" fill="#f83816" />
<rect x="53.760000000000005" y="412.16" width="46.080000000000005" height="46.080000000000005" fill="#fb1c19" />
<rect x="53.760000000000005" y="463.36" width="46.080000000000005" height="46.080000000000005" fill="#ff001c" />
<rect x="104.96000000000001" y="2.5599999999999987" width="46.080000000000005" height="46.080000000000005" fill="#c6ff00" />
<rect x="104.96000000000001" y="53.760000000000005" width="46.080000000000005" height="46.080000000000005" fill="#cce206" />
<rect x="104.96000000000001" y="104.96000000000001" width="46.080000000000005" height="46.080000000000005" fill="#d2c60c" />
<rect x="104.96000000000001" y="156.16000000000003" width="46.08000000000001" height="46.08000000000001" fill="#d9aa12" />
<rect x="104.96000000000001" y="207.36" width="46.08000000000001" height="46.08000000000001" fill="#df8d19" />
<rect x="104.96000000000001" y="258.56" width="46.08" height="46.08" fill="#e5711f" />
<rect x="104.96000000000001" y="309.76000000000005" width="46.080000000000005" height="46.080000000000005" fill="#ec5525" />
<rect x="104.96000000000001" y="360.96000000000004" width="46.080000000000005" height="46.080000000000005" fill="#f2382c" />
<rect x="104.96000000000001" y="412.16" width="46.080000000000005" height="46.080000000000005" fill="#f81c32" />
<rect x="104.96000000000001" y="463.36" width="46.080000000000005" height="46.080000000000005" fill="#ff0038" />
<rect x="156.16000000000003" y="2.5599999999999987" width="46.080000000000005" height="46.080000000000005" fill="#aaff00" />
<rect x="156.16000000000003" y="53.760000000000005" width="46.080000000000005" height="46.080000000000005" fill="#b3e209" />
<rect x="156.16000000000003" y="104.96000000000001" width="46.08000000000001" height="46.08000000000001" fill="#bcc612" />
<rect x="156.16000000000003" y="156.16000000000003" width="46.080000000000005" height="46.080000000000005" fill="#c6aa1c" />
<rect x="156.16000000000003" y="207.36" width="46.08000000000001" height="46.08000000000001" fill="#cf8d25" />
<rect x="156.16000000000003" y="258.56" width="46.080000000000005" height="46.080000000000005" fill="#d9712f" />
<rect x="156.16000000000003" y="309.76000000000005" width="46.08" height="46.08" fill="#e25538" />
<rect x="156.16000000000003" y="360.96000000000004" width="46.080000000000005" height="46.080000000000005" fill="#ec3842" />
<rect x="156.16000000000003" y="412.16" width="46.080000000000005" height="46.080000000000005" fill="#f51c4b" />
<rect x="156.16000000000003" y="463.36" width="46.080000000000005" height="46.080000000000005" fill="#ff0055" />
<rect x="207.36" y="2.5599999999999987" width="46.080000000000005" height="46.080000000000005" fill="#8dff00" />
<rect x="207.36" y="53.76" width="46.08000000000001" height="46.08000000000001" fill="#9ae20c" />
<rect x="207.36" y="104.96000000000001" width="46.08000000000001" height="46.08000000000001" fill="#a6c619" />
<rect x="207.36" y="156.16000000000003" width="46.08000000000001" height="46.08000000000001" fill="#b3aa25" />
<rect x="207.36" y="207.36" width="46.080000000000005" height="46.080000000000005" fill="#c08d32" />
<rect x="207.36" y="258.56" width="46.08000000000001" height="46.08000000000001" fill="#cc713e" />
<rect x="207.36" y="309.76000000000005" width="46.080000000000005" height="46.080000000000005" fill="#d9554b" />
<rect x="207.36" y="360.96000000000004" width="46.080000000000005" height="46.080000000000005" fill="#e53858" />
<rect x="207.36" y="412.16" width="46.080000000000005" height="46.080000000000005" fill="#f21c64" />
<rect x="207.36" y="463.36" width="46.080000000000005" height="46.080000000000005" fill="#ff0071" />
<rect x="258.56" y="2.559999999999995" width="46.08000000000001" height="46.08000000000001" fill="#71ff00" />
<rect x="258.56" y="53.760000000000005" width="46.080000000000005" height="46.080000000000005" fill="#81e20f" />
<rect x="258.56" y="104.96000000000001" width="46.08" height="46.08" fill="#90c61f" />
<rect x="258.56" y="156.16000000000003" width="46.080000000000005" height="46.080000000000005" fill="#a0aa2f" />
<rect x="258.56" y="207.36" width="46.08000000000001" height="46.08000000000001" fill="#b08d3e" />
<rect x="258.56" y="258.56" width="46.080000000000005" height="46.080000000000005" fill="#c0714e" />
<rect x="258.56" y="309.76000000000005" width="46.08000000000001" height="46.08000000000001" fill="#cf555e" />
<rect x="258.56" y="360.96000000000004" width="46.080000000000005" height="46.080000000000005" fill="#df386e" />
<rect x="258.56" y="412.16" width="46.080000000000005" height="46.080000000000005" fill="#ef1c7d" />
<rect x="258.56" y="463.36" width="46.080000000000005" height="46.080000000000005" fill="#ff008d" />
<rect x="309.76000000000005" y="2.5599999999999987" width="46.080000000000005" height="46.080000000000005" fill="#55ff00" />
<rect x="309.76000000000005" y="53.760000000000005" width="46.080000000000005" height="46.080000000000005" fill="#67e212" />
<rect x="309.76000000000005" y="104.96000000000001" width="46.080000000000005" height="46.080000000000005" fill="#7ac625" />
<rect x="309.76000000000005" y="156.16000000000003" width="46.08" height="46.08" fill="#8daa38" />
<rect x="309.76000000000005" y="207.36" width="46.080000000000005" height="46.080000000000005" fill="#a08d4b" />
<rect x="309.76000000000005" y="258.56" width="46.08000000000001" height="46.08000000000001" fill="#b3715e" />
<rect x="309.76000000000005" y="309.76000000000005" width="46.080000000000005" height="46.080000000000005" fill="#c65571" />
<rect x="309.76000000000005" y="360.96000000000004" width="46.080000000000005" height="46.080000000000005" fill="#d93884" />
<rect x="309.76000000000005" y="412.16" width="46.080000000000005" height="46.080000000000005" fill="#ec1c97" />
<rect x="309.76000000000005" y="463.36" width="46.080000000000005" height="46.080000000000005" fill="#ff00aa" />
<rect x="360.96000000000004" y="2.559999999999995" width="46.08000000000001" height="46.08000000000001" fill="#38ff00" />
<rect x="360.96000000000004" y="53.760000000000005" width="46.080000000000005" height="46.080000000000005" fill="#4ee216" />
<rect x="360.96000000000004" y="104.96000000000001" width="46.080000000000005" height="46.080000000000005" fill="#64c62c" />
<rect x="360.96000000000004" y="156.16000000000003" width="46.080000000000005" height="46.080000000000005" fill="#7aaa42" />
<rect x="360.96000000000004" y="207.36" width="46.080000000000005" height="46.080000000000005" fill="#908d58" />
<rect x="360.96000000000004" y="258.56" width="46.080000000000005" height="46.080000000000005" fill="#a6716e" />
<rect x="360.96000000000004" y="309.76000000000005" width="46.080000000000005" height="46.080000000000005" fill="#bc5584" />
<rect x="360.96000000000004" y="360.96000000000004" width="46.080000000000005" height="46.080000000000005" fill="#d2389a" />
<rect x="360.96000000000004" y="412.16" width="46.080000000000005" height="46.080000000000005" fill="#e81cb0" />
<rect x="360.96000000000004" y="463.36" width="46.080000000000005" height="46.080000000000005" fill="#ff00c6" />
<rect x="412.16" y="2.5599999999999987" width="46.080000000000005" height="46.080000000000005" fill="#1cff00" />
<rect x="412.16" y="53.760000000000005" width="46.080000000000005" height="46.080000000000005" fill="#35e219" />
<rect x="412.16" y="104.96000000000001" width="46.080000000000005" height="46.080000000000005" fill="#4ec632" />
<rect x="412.16" y="156.16000000000003" width="46.080000000000005" height="46.080000000000005" fill="#67aa4b" />
<rect x="412.16" y="207.36" width="46.080000000000005" height="46.080000000000005" fill="#818d64" />
<rect x="412.16" y="258.56" width="46.080000000000005" height="46.080000000000005" fill="#9a717d" />
<rect x="412.16" y="309.76000000000005" width="46.080000000000005" height="46.080000000000005" fill="#b35597" />
<rect x="412.16" y="360.96000000000004" width="46.080000000000005" height="46.080000000000005" fill="#cc38b0" />
<rect x="412.16" y="412.16" width="46.080000000000005" height="46.080000000000005" fill="#e51cc9" />
<rect x="412.16" y="463.36" width="46.080000000000005" height="46.080000000000005" fill="#ff00e2" />
<rect x="463.36" y="2.5599999999999987" width="46.080000000000005" height="46.080000000000005" fill="#00ff00" />
<rect x="463.36" y="53.760000000000005" width="46.080000000000005" height="46.080000000000005" fill="#1ce21c" />
<rect x="463.36" y="104.96000000000001" width="46.080000000000005" height="46.080000000000005" fill="#38c638" />
<rect x="463.36" y="156.16000000000003" width="46.080000000000005" height="46.080000000000005" fill="#55aa55" />
<rect x="463.36" y="207.36" width="46.080000000000005" height="46.080000000000005" fill="#718d71" />
<rect x="463.36" y="258.56" width="46.080000000000005" height="46.080000000000005" fill="#8d718d" />
<rect x="463.36" y="309.76000000000005" width="46.080000000000005" height="46.080000000000005" fill="#aa55aa" />
<rect x="463.36" y="360.96000000000004" width="46.080000000000005" height="46.080000000000005" fill="#c638c6" />
<rect x="463.36" y="412.16" width="46.080000000000005" height="46.080000000000005" fill="#e21ce2" />
<rect x="463.36" y="463.36" width="46.080000000000005" height="46.080000000000005" fill="#ff00ff" />
</svg>